<?xml version="1.0" encoding="UTF-8" standalone="no"?>
<!-- Created with Inkscape (http://www.inkscape.org/) -->

<svg
   xmlns:dc="http://purl.org/dc/elements/1.1/"
   xmlns:cc="http://creativecommons.org/ns#"
   xmlns:rdf="http://www.w3.org/1999/02/22-rdf-syntax-ns#"
   xmlns:svg="http://www.w3.org/2000/svg"
   xmlns="http://www.w3.org/2000/svg"
   xmlns:sodipodi="http://sodipodi.sourceforge.net/DTD/sodipodi-0.dtd"
   xmlns:inkscape="http://www.inkscape.org/namespaces/inkscape"
   width="256"
   height="256"
   viewBox="0 0 67.733332 67.733335"
   version="1.1"
   id="svg3826"
   inkscape:version="0.92.5 (2060ec1f9f, 2020-04-08)"
   sodipodi:docname="logo-audio.svg">
  <defs
     id="defs3820" />
  <sodipodi:namedview
     id="base"
     pagecolor="#ffffff"
     bordercolor="#666666"
     borderopacity="1.0"
     inkscape:pageopacity="0.0"
     inkscape:pageshadow="2"
     inkscape:zoom="1.979899"
     inkscape:cx="-46.064085"
     inkscape:cy="203.20993"
     inkscape:document-units="mm"
     inkscape:current-layer="layer1"
     showgrid="false"
     units="px"
     inkscape:window-width="1893"
     inkscape:window-height="1172"
     inkscape:window-x="27"
     inkscape:window-y="0"
     inkscape:window-maximized="1" />
  <metadata
     id="metadata3823">
    <rdf:RDF>
      <cc:Work
         rdf:about="">
        <dc:format>image/svg+xml</dc:format>
        <dc:type
           rdf:resource="http://purl.org/dc/dcmitype/StillImage" />
        <dc:title></dc:title>
      </cc:Work>
    </rdf:RDF>
  </metadata>
  <g
     inkscape:label="Layer 1"
     inkscape:groupmode="layer"
     id="layer1"
     transform="translate(0,-229.26665)">
    <g
       id="g3778"
       transform="translate(-80.139731,154.43982)">
      <path
         style="fill:#e1fdfc;stroke-width:0.26458332"
         d="M 80.28215,108.76785 V 74.901184 h 33.86667 33.86666 v 33.866666 33.86666 H 114.14882 80.28215 Z"
         id="path3786"
         inkscape:connector-curvature="0" />
      <path
         style="fill:#28c5db;stroke-width:0.26458332"
         d="M 80.28215,108.76785 V 74.901184 h 33.86667 33.86666 v 33.866666 33.86666 H 114.14882 80.28215 Z m 50.21365,20.41386 c 0.53814,-0.34146 0.10086,-1.03158 -1.22808,-1.93816 -0.67556,-0.46084 -1.73928,-1.1868 -2.36384,-1.61323 -1.34004,-0.91494 -1.98439,-1.80123 -1.75126,-2.40877 0.2363,-0.61578 -0.18263,-1.03284 -3.03519,-3.02167 -1.49046,-1.03916 -2.82435,-1.77294 -3.28028,-1.8045 -0.42262,-0.0293 -1.2039,-0.40211 -1.73618,-0.82856 -1.70617,-1.36693 -4.01325,-2.77116 -6.65632,-4.05144 -0.94589,-0.45818 -1.92888,-1.01855 -2.18444,-1.24527 -0.6191,-0.54924 -0.93032,-0.19785 -0.37158,0.41955 0.24164,0.26702 0.43935,0.55184 0.43935,0.63295 0,0.39164 3.19136,3.37844 4.29948,4.0239 0.80916,0.47131 1.25677,0.91308 1.25677,1.24034 0,0.46412 0.7903,0.97458 2.13808,1.381 0.23005,0.0694 0.68293,0.85198 1.0064,1.73911 0.40945,1.12297 0.72667,1.61297 1.0442,1.61297 0.72678,0 1.60893,0.7545 2.11172,1.80615 0.4217,0.88205 0.54953,0.96317 1.38163,0.87683 2.78262,-0.28875 2.92531,-0.25083 3.81997,1.01507 0.62342,0.88212 1.16058,1.30024 2.10418,1.63783 0.69687,0.24932 1.33369,0.51997 1.41516,0.60143 0.21886,0.21886 1.19968,0.17227 1.59023,-0.0755 z m 3.41766,-4.65922 c -0.11998,-0.73938 -0.0533,-0.94426 0.34873,-1.07186 0.50584,-0.16055 0.6141,-0.38612 0.92432,-1.92597 0.15407,-0.76475 0.061,-0.9737 -0.774,-1.73857 -0.52201,-0.47815 -0.94911,-1.05118 -0.94911,-1.27341 0,-0.22223 0.4548,-0.60914 1.01068,-0.8598 l 1.01068,-0.45575 1.37057,0.85199 c 0.75381,0.4686 1.37057,1.01279 1.37057,1.20932 0,0.41846 0.2422,0.44782 0.79375,0.0962 0.55418,-0.35328 0.0961,-1.0188 -1.20119,-1.74506 -0.56431,-0.31591 -1.06567,-0.69335 -1.11413,-0.83876 -0.12473,-0.37418 1.46371,-1.65299 2.0532,-1.65299 0.27008,0 0.56142,0.20836 0.64744,0.46302 0.31136,0.92179 1.7335,2.21957 2.33804,2.13358 0.80265,-0.11417 0.92251,-1.26956 0.19958,-1.92381 -0.29793,-0.26962 -0.54169,-0.74296 -0.54169,-1.05187 0,-0.30891 -0.20836,-0.76072 -0.46302,-1.00402 -0.25467,-0.24331 -0.58209,-0.56199 -0.72761,-0.70819 -0.14552,-0.14621 -0.78346,-0.71345 -1.41765,-1.26055 -1.33714,-1.15352 -1.11255,-1.3699 0.77215,-0.7439 0.73769,0.24502 1.40271,0.38402 1.47783,0.3089 0.34555,-0.34555 -0.58666,-1.27972 -2.41293,-2.41798 -1.09644,-0.68338 -2.10433,-1.44955 -2.23975,-1.70259 -0.16592,-0.31002 -0.0793,-1.09605 0.26571,-2.41 0.72374,-2.75666 0.67296,-4.60138 -0.1734,-6.299807 -1.15874,-2.325298 -3.12497,-3.491117 -5.88798,-3.491117 -0.92452,0 -1.11946,-0.11635 -1.6624,-0.992187 -0.33828,-0.545703 -0.70466,-1.203963 -0.81417,-1.462801 -0.1095,-0.258837 -1.02846,-0.868076 -2.04213,-1.353864 -1.56632,-0.750635 -2.15992,-0.890016 -3.95351,-0.928304 -1.91217,-0.04082 -2.12656,0.0056 -2.28165,0.49425 -0.0941,0.296616 -0.39999,0.661767 -0.67967,0.811447 -0.27968,0.149681 -0.70447,0.65557 -0.94397,1.124199 -0.51981,1.017097 -1.01318,1.340435 -2.08099,1.363796 -0.7562,0.01655 -0.81795,0.104062 -1.2257,1.737214 -0.23617,0.945886 -0.62239,2.076979 -0.85827,2.513542 -0.23588,0.436562 -0.42961,1.002109 -0.43051,1.256771 -0.002,0.503581 -0.40072,0.622971 -0.66309,0.198437 -0.0899,-0.145521 -0.39462,-0.264583 -0.67707,-0.264583 -0.3714,0 -0.51355,0.183093 -0.51355,0.661457 0,0.38631 0.15202,0.66146 0.36547,0.66146 0.59126,0 1.78116,1.78513 2.17442,3.26216 0.49688,1.86623 0.47561,1.99616 -0.35708,2.18052 -2.5859,0.57253 -2.95601,0.98837 -1.81909,2.04382 0.72445,0.67254 2.17421,1.85988 2.94315,2.41042 1.0841,0.77618 0.1109,0.7164 -1.11061,-0.0682 -1.69788,-1.09061 -4.0446,-2.20113 -4.4006,-2.08247 -0.62126,0.20709 2.55138,3.05438 6.83296,6.13227 6.61902,4.75817 8.0113,5.69372 9.28766,6.24083 1.15179,0.49372 2.56607,1.36955 5.50015,3.40614 0.85639,0.59443 1.85423,1.08078 2.21743,1.08078 0.6053,0 0.648,-0.0762 0.51203,-0.91411 z m -1.63757,-1.46209 c -0.0882,-0.14275 -0.94297,-0.64876 -1.89946,-1.12448 -1.59973,-0.79565 -3.20679,-2.20001 -2.88537,-2.52143 0.0742,-0.0742 0.76366,0.18365 1.53223,0.5729 1.60806,0.81441 4.51465,3.33254 3.84665,3.33254 -0.23851,0 -0.50583,-0.11679 -0.59405,-0.25953 z m -6.22083,-4.37068 c -0.18373,-0.22138 -0.21238,-0.39687 -0.0648,-0.39687 0.14552,0 0.4128,0.17859 0.59396,0.39687 0.18374,0.22139 0.21239,0.39688 0.0648,0.39688 -0.14552,0 -0.4128,-0.1786 -0.59396,-0.39688 z"
         id="path3784"
         inkscape:connector-curvature="0" />
      <path
         style="fill:#0f718e;stroke-width:0.26458332"
         d="m 80.28215,136.41941 v -6.21682 l 1.255202,0.95812 c 0.690362,0.52697 1.388955,1.27622 1.552431,1.66502 0.300768,0.71531 1.790412,2.13587 2.23975,2.13587 0.9471,0 -1.161948,-3.16538 -2.120322,-3.1823 -0.230214,-0.004 -0.719798,-0.61981 -1.104454,-1.38907 -0.380014,-0.75997 -0.945561,-1.49929 -1.256771,-1.64294 -0.535442,-0.24714 -0.565836,-0.44504 -0.565836,-3.68414 v -3.42296 l 0.612365,0.57529 c 0.850544,0.79904 0.956604,0.73485 0.907439,-0.54919 -0.02368,-0.61847 0.05876,-1.3449 0.183198,-1.61429 0.202754,-0.43893 0.126064,-0.4763 -0.738375,-0.35981 l -0.964627,0.13 v -2.61676 c 0,-2.31315 0.05372,-2.61754 0.463021,-2.62357 0.254726,-0.004 0.864637,-0.59888 1.355777,-1.32292 0.608445,-0.89696 1.071878,-1.31343 1.455209,-1.30773 0.652615,0.01 2.10253,1.19224 1.965575,1.6031 -0.05111,0.15334 -0.840159,0.60953 -1.753437,1.01376 -0.913278,0.40424 -1.788619,0.86309 -1.945202,1.01967 -0.203207,0.20321 0.135092,0.72577 1.181891,1.82563 0.806623,0.84752 2.458733,2.59597 3.671356,3.88545 1.212622,1.28948 2.354953,2.48011 2.538513,2.64583 0.18356,0.16573 1.552779,1.4728 3.042708,2.90461 1.48993,1.43181 3.01064,2.80103 3.379357,3.04271 0.368716,0.24168 1.194655,1.01267 1.835419,1.71331 0.640764,0.70065 1.559477,1.43871 2.041586,1.64015 0.482107,0.20144 0.876557,0.48826 0.876557,0.63737 0,0.38799 2.33037,2.6663 2.72723,2.6663 0.18262,0 1.03283,0.70817 1.88934,1.57372 0.85652,0.86554 1.8766,1.70597 2.26685,1.86762 0.39025,0.16165 1.07981,0.81921 1.53236,1.46124 l 0.82281,1.16734 -14.673459,0.009 -14.673461,0.009 z m 20.09823,4.48455 c -0.32779,-0.34891 -0.707502,-0.56547 -0.843802,-0.48123 -0.136301,0.0842 0.08743,0.50309 0.497182,0.93078 0.40975,0.42769 0.78946,0.64424 0.8438,0.48123 0.0543,-0.16301 -0.1694,-0.58186 -0.49718,-0.93078 z m -8.191981,0.72412 c 0,-0.36705 -1.834792,-2.00947 -2.028472,-1.81579 -0.101374,0.10138 0.217855,0.59925 0.709398,1.1064 0.871429,0.89908 1.319074,1.13983 1.319074,0.70939 z m 5.820833,-2.90102 c 0,-0.39169 -2.169894,-2.82464 -2.933274,-3.28888 -0.423991,-0.25784 -0.770892,-0.5725 -0.770892,-0.69923 0,-0.51945 -1.910531,-2.68777 -2.368228,-2.68777 -0.308928,0 -0.760966,-0.46749 -1.215227,-1.25677 -0.951678,-1.65354 -1.430025,-2.18281 -1.972795,-2.18281 -0.601115,0 -1.188411,-0.71548 -1.574568,-1.91823 -0.269702,-0.84003 -0.434233,-0.99219 -1.072885,-0.99219 -0.414883,0 -0.936754,-0.18242 -1.159713,-0.40538 -0.483412,-0.48341 -0.825144,-2.07353 -0.543543,-2.52917 0.149013,-0.24111 -0.0205,-0.27902 -0.668306,-0.14946 -0.47738,0.0955 -1.031675,0.17359 -1.231766,0.17359 -0.200091,0 -0.363802,0.22554 -0.363802,0.50119 0,0.47191 0.485786,1.05014 2.282848,2.71728 0.417924,0.38771 1.110465,1.14497 1.538983,1.68279 0.428517,0.53783 1.033917,1.09396 1.345334,1.23585 0.311417,0.14189 0.773074,0.60817 1.025905,1.03618 0.565959,0.9581 1.756825,2.08713 2.201428,2.08713 0.181563,0 0.618198,0.45636 0.970301,1.01412 0.724282,1.14734 2.136485,2.42546 2.679899,2.42546 0.199338,0 0.784806,0.63634 1.30104,1.41408 0.516234,0.77774 1.207208,1.54358 1.535497,1.70188 0.733226,0.35355 0.993764,0.3851 0.993764,0.12034 z m -9.260416,-0.50115 c 0,-0.55623 -1.708185,-2.73515 -2.144248,-2.73515 -0.820589,0 -0.580382,0.80073 0.567889,1.89306 0.996198,0.94765 1.576359,1.25758 1.576359,0.84209 z m 21.566954,3.20517 c -0.57549,-0.66189 -1.10934,-1.30012 -1.18634,-1.41829 -0.077,-0.11817 -0.5119,-0.40534 -0.96647,-0.63816 -0.8436,-0.43208 -3.00998,-2.81025 -3.00998,-3.30425 0,-0.15014 -0.36312,-0.35274 -0.80693,-0.45022 -0.59052,-0.1297 -1.06219,-0.56169 -1.75875,-1.61078 -0.91756,-1.38195 -0.93498,-1.45216 -0.48399,-1.9505 0.66757,-0.73766 2.10049,-1.16784 2.74359,-0.82366 0.83483,0.44679 1.89358,1.86665 1.89358,2.53942 0,0.56254 0.0893,0.61003 0.90004,0.47847 0.81843,-0.13282 1.05774,5.3e-4 2.63916,1.47184 0.95652,0.88984 1.87314,1.6179 2.03695,1.6179 0.16381,0 1.14908,0.75849 2.18949,1.68554 1.04041,0.92705 2.12978,1.76163 2.42082,1.85462 0.29104,0.093 0.93225,0.52513 1.42492,0.96029 l 0.89575,0.79121 h -3.94275 -3.94275 z m 8.85079,0.34354 c -0.95345,-1.5448 -0.41259,-2.54141 1.89271,-3.48764 0.95572,-0.39228 0.96002,-0.39094 2.54982,0.79045 0.87587,0.65087 1.65431,1.41982 1.72988,1.70878 0.10437,0.39913 0.36215,0.52539 1.07264,0.52539 0.7581,0 1.18879,-0.24309 2.27373,-1.28332 0.73616,-0.70583 1.33847,-1.4202 1.33847,-1.5875 0,-0.56456 -0.68457,-0.30947 -1.72363,0.64228 -1.34187,1.22911 -1.73045,1.4168 -2.40507,1.1617 -0.54924,-0.20768 -1.95671,-2.30308 -1.95671,-2.91308 0,-0.46254 2.17178,-2.3466 2.71952,-2.35923 0.54916,-0.0127 3.51254,1.43635 3.76159,1.83932 0.23502,0.38028 1.92611,1.06024 2.63686,1.06024 0.36976,0 0.69863,-0.24571 0.88948,-0.66459 0.3783,-0.83028 2.5687,-2.24628 3.47195,-2.24447 0.37169,8e-4 1.15206,0.29469 1.73414,0.6532 1.0742,0.66163 1.83602,0.85933 1.67569,0.43488 -0.27613,-0.73101 -5.08552,-6.22968 -6.04854,-6.91541 -0.82436,-0.58699 -1.46314,-1.5231 -1.21123,-1.77501 0.081,-0.081 0.29904,-0.0222 0.48445,0.1307 0.45852,0.37816 6.21428,3.58797 8.47872,4.72832 3.26657,1.64502 2.57867,0.74292 -2.78378,-3.65061 -2.04067,-1.67195 -2.65952,-2.33867 -2.17073,-2.33867 0.0794,0 1.8951,0.99624 4.03489,2.21388 4.80054,2.73172 6.03297,3.36069 6.2195,3.17416 0.08,-0.08 0.15828,2.36583 0.17385,5.43529 l 0.0283,5.58083 h -14.16788 -14.16789 z m -2.4321,-2.33296 c -0.51537,-0.30033 -2.05648,-2.44579 -2.05648,-2.86293 0,-0.33378 2.14181,-1.61713 2.69884,-1.61713 0.45504,0 2.34374,1.42522 2.68154,2.0235 0.27844,0.49314 -0.75707,2.06776 -1.61767,2.45988 -0.75096,0.34215 -1.1146,0.34145 -1.70623,-0.003 z m 4.32093,-4.09239 c -0.45164,-0.51439 -0.82116,-1.11541 -0.82116,-1.33561 0,-0.44788 1.20188,-1.59818 1.92632,-1.84365 0.63863,-0.21638 2.83618,1.09311 2.83618,1.69004 0,0.45632 -2.31008,2.42446 -2.84569,2.42446 -0.15097,0 -0.64401,-0.42086 -1.09565,-0.93524 z m -8.53965,0.13181 c -0.42265,-0.24661 -1.54192,-1.84958 -1.54192,-2.20825 0,-0.29119 1.69153,-1.21961 2.22398,-1.22066 0.71928,-10e-4 2.27393,1.25727 2.27393,1.84104 0,0.58094 -1.43488,1.86565 -2.07082,1.85409 -0.2435,-0.004 -0.64182,-0.12422 -0.88517,-0.26622 z m -4.05724,-3.80449 c -0.84297,-0.84298 -0.85012,-1.66665 -0.0177,-2.04591 1.41244,-0.64355 2.89216,0.46714 2.11002,1.5838 -0.74353,1.06154 -1.35729,1.1971 -2.09228,0.46211 z m 8.74803,0.0511 c -0.60982,-0.87063 -0.50482,-1.44494 0.31572,-1.72686 0.93662,-0.3218 2.18281,0.0797 2.18281,0.70332 0,0.56901 -1.07111,1.61157 -1.65569,1.61157 -0.23703,0 -0.61631,-0.26461 -0.84284,-0.58803 z m -17.404593,-0.13957 c -0.385382,-0.43953 -1.263538,-2.02123 -1.263538,-2.27583 0,-0.19739 1.857141,-1.2299 2.212181,-1.2299 0.53607,0 2.02115,1.69709 2.02115,2.30968 0,0.63805 -1.26182,1.65907 -2.05036,1.65907 -0.2824,0 -0.69615,-0.20836 -0.919433,-0.46302 z m 13.706423,-3.02686 c -0.36825,-0.52576 -0.36583,-0.62701 0.0254,-1.05926 0.49437,-0.54627 1.16285,-0.61811 1.60813,-0.17282 0.37532,0.37531 0.0144,1.1494 -0.71886,1.54183 -0.40638,0.21749 -0.58854,0.1558 -0.91462,-0.30975 z m -16.853494,0.0485 c -0.235578,-0.13764 -0.584536,-0.62739 -0.775461,-1.08833 -0.330924,-0.79892 -0.307633,-0.87336 0.498644,-1.59377 0.46518,-0.41564 0.974728,-0.75571 1.132329,-0.75571 0.346517,0 1.821771,1.53895 1.821771,1.90042 0,0.38843 -1.497054,1.80489 -1.897876,1.79571 -0.193095,-0.004 -0.543828,-0.12067 -0.779407,-0.25832 z m 8.245624,-0.11595 c -0.75293,-0.90722 0.28608,-2.44062 1.24468,-1.83693 0.64901,0.40871 0.72312,1.1103 0.18062,1.70976 -0.54965,0.60736 -0.99389,0.647 -1.4253,0.12717 z m 42.30643,-0.37023 c -0.68073,-0.55122 -0.57996,-1.1688 0.26445,-1.62071 0.51191,-0.27397 0.54411,-0.2202 0.54411,0.90874 0,0.65996 -0.0463,1.19993 -0.10298,1.19993 -0.0566,0 -0.37415,-0.21958 -0.70558,-0.48796 z m -3.67671,-2.80587 c -0.62427,-0.66451 -0.59055,-1.46867 0.0616,-1.46867 0.45999,0 1.58658,1.51939 1.37747,1.85775 -0.26879,0.43491 -0.79984,0.29133 -1.43906,-0.38908 z m -50.538752,-0.12836 c -0.431223,-0.80575 -0.324305,-1.46529 0.338473,-2.08794 0.782813,-0.73541 1.270171,-0.72632 1.987348,0.0371 0.775457,0.82543 0.723997,1.36237 -0.193161,2.01545 -0.962978,0.6857 -1.777398,0.69922 -2.13266,0.0354 z m 8.506742,-0.34812 c 0.0691,-0.717 0.20407,-0.87384 0.81202,-0.94377 0.48157,-0.0554 0.7844,0.0602 0.89198,0.34059 0.20485,0.53384 -0.60937,1.46307 -1.28199,1.46307 -0.41027,0 -0.48938,-0.16119 -0.42201,-0.85989 z m 8.47792,0.5457 c 0.16353,-0.4906 0.73311,-0.57197 0.73311,-0.10473 0,0.23041 -0.18851,0.41892 -0.41892,0.41892 -0.23041,0 -0.3718,-0.14139 -0.31419,-0.31419 z m 37.55884,-2.46281 c -0.16603,-0.36442 -0.48303,-0.66258 -0.70443,-0.66258 -0.52851,0 -0.5177,-0.42836 0.016,-0.63315 0.73684,-0.28275 0.87685,-0.17968 1.05647,0.77778 0.21646,1.15384 0.0369,1.40658 -0.368,0.51795 z m -57.612976,-0.77023 c -0.180891,-0.72073 0.108217,-1.38539 0.923551,-2.12326 0.552563,-0.50006 0.566249,-0.49751 1.347424,0.2509 1.006401,0.96419 0.993206,1.33423 -0.07071,1.98291 -1.191044,0.72619 -2.000468,0.68552 -2.20027,-0.11055 z m 8.351832,0.22255 c 0,-0.64751 0.509006,-1.43782 0.926041,-1.43782 0.208042,0 0.501928,0.23108 0.65308,0.51351 0.221853,0.41453 0.161293,0.59303 -0.314145,0.92604 -0.752642,0.52718 -1.264976,0.52647 -1.264976,-0.002 z m 8.466664,0.033 c 0,-0.22687 0.11906,-0.41249 0.26459,-0.41249 0.14552,0 0.26458,0.11203 0.26458,0.24896 0,0.13694 -0.11906,0.32256 -0.26458,0.41249 -0.14553,0.0899 -0.26459,-0.0221 -0.26459,-0.24896 z m -19.764731,-2.70488 c -0.197482,-0.51463 0.640449,-2.16607 1.307756,-2.5774 0.372794,-0.22979 0.61896,-0.12577 1.289744,0.54502 0.947021,0.94702 0.869096,1.21452 -0.567261,1.9473 -1.256196,0.64086 -1.808091,0.66399 -2.030239,0.0851 z m 8.239766,0.15049 c -0.273881,-0.44315 0.438627,-1.56227 0.994647,-1.56227 0.781421,0 0.915233,0.80633 0.226381,1.36413 -0.692821,0.56101 -0.969058,0.60583 -1.221028,0.19814 z M 84.2509,117.0503 c 0,-0.79786 1.216686,-2.7262 1.720094,-2.7262 0.549132,0 1.719489,1.06899 1.719489,1.57057 0,0.32246 -0.496586,0.69669 -1.554439,1.17142 -0.854942,0.38368 -1.628848,0.69759 -1.719792,0.69759 -0.09094,0 -0.165352,-0.32102 -0.165352,-0.71338 z m 7.937499,-0.0342 c 0,-0.26567 0.294166,-0.7594 0.653702,-1.09716 0.542293,-0.50946 0.722663,-0.55689 1.058334,-0.27831 0.615736,0.51101 0.487171,1.0085 -0.37598,1.45485 -1.021125,0.52804 -1.336056,0.50933 -1.336056,-0.0794 z m 7.937501,0.25947 c 0,-0.12296 0.23812,-0.43907 0.52917,-0.70246 0.42005,-0.38015 0.52916,-0.39952 0.52916,-0.0939 0,0.415 -0.50218,1.01997 -0.84666,1.01997 -0.11642,0 -0.21167,-0.10061 -0.21167,-0.22358 z m -10.847917,-2.6234 c 0,-0.47497 1.171079,-1.91552 1.5572,-1.91552 0.389252,0 1.064792,0.93379 0.87681,1.212 -0.326555,0.4833 -1.47858,1.16925 -1.963715,1.16925 -0.272551,0 -0.470295,-0.19582 -0.470295,-0.46573 z m 7.9375,-0.15472 c 0,-0.19573 0.221053,-0.55592 0.49123,-0.80043 0.453993,-0.41086 0.518418,-0.41179 0.849908,-0.0124 0.307222,0.37018 0.286431,0.48501 -0.144925,0.80043 -0.638745,0.46706 -1.196213,0.47283 -1.196213,0.0124 z m 46.037497,-3.3761 c -2.54661,-1.59898 -4.86303,-3.13782 -5.14758,-3.41965 -0.51338,-0.50846 -0.51262,-0.52525 0.0975,-2.17051 0.3382,-0.91194 0.73276,-2.25339 0.87681,-2.981 0.38109,-1.925 0.10051,-5.189708 -0.56401,-6.562417 -0.30493,-0.629902 -0.55442,-1.28628 -0.55442,-1.458617 0,-0.172337 -0.10462,-0.31334 -0.23248,-0.31334 -0.12787,0 -0.38344,-0.364435 -0.56794,-0.809857 -0.1845,-0.445421 -0.71569,-1.099879 -1.18043,-1.454351 -0.64474,-0.491769 -0.92079,-0.983271 -1.16491,-2.074116 -0.304,-1.358398 -0.40826,-1.487909 -2.09281,-2.599623 -0.97509,-0.643502 -2.30867,-1.313485 -2.96351,-1.488852 -1.10512,-0.295952 -2.01107,-0.672037 -6.21771,-2.581165 -1.48684,-0.674784 -1.79576,-0.716721 -4.87208,-0.661415 -3.54199,0.06368 -4.44564,0.321839 -5.21002,1.488428 -0.23639,0.360773 -0.56493,0.655955 -0.7301,0.65596 -0.42239,1.1e-5 -1.69652,1.657212 -1.90122,2.472841 -0.0939,0.374245 -0.3377,0.81897 -0.5417,0.988278 -0.20401,0.169308 -0.37092,0.472432 -0.37092,0.673608 0,0.201177 -0.28281,0.952022 -0.62847,1.668544 -0.34567,0.716522 -0.706,1.716006 -0.80076,2.221075 -0.18439,0.982885 -0.76067,1.650133 -1.19392,1.382371 -0.26933,-0.166456 -2.93402,-0.486316 -2.93199,-0.351946 6.1e-4,0.04034 0.29586,0.654325 0.65612,1.364412 l 0.65501,1.291067 -0.65612,0.779754 c -0.36086,0.428865 -0.65612,0.87555 -0.65612,0.992634 0,0.117084 0.41512,0.529508 0.92249,0.916496 1.08032,0.823998 1.50284,1.505601 1.2185,1.965661 -0.16066,0.25996 -0.85374,0.23546 -3.30229,-0.11673 -3.22462,-0.46382 -4.394948,-0.32507 -4.394948,0.52104 0,0.20696 0.527517,1.01152 1.17226,1.78792 0.644748,0.7764 1.141078,1.44282 1.102978,1.48093 -0.0381,0.0381 -0.77399,-0.21413 -1.635284,-0.56052 -0.861297,-0.34639 -2.144196,-0.76579 -2.850886,-0.932 -1.2076,-0.28403 -1.354037,-0.25846 -2.43441,0.42504 -0.632237,0.39998 -1.290344,0.99037 -1.46246,1.31197 -0.172117,0.3216 -0.683976,0.7348 -1.137464,0.91821 -0.453489,0.18342 -1.307924,0.81635 -1.898746,1.40652 -0.626229,0.62553 -1.641327,1.2752 -2.434062,1.55782 -0.747913,0.26664 -2.145134,0.95843 -3.104935,1.53732 -0.959802,0.57888 -2.215958,1.21864 -2.791458,1.42169 l -1.046365,0.36918 V 93.542571 74.901184 h 33.86667 33.86666 V 94.48035 c 0,10.76854 -0.0298,19.57219 -0.0661,19.56367 -0.0364,-0.009 -2.14974,-1.32374 -4.69635,-2.92272 z m -56.885414,1.54442 c 0,-0.61565 1.33547,-2.31037 1.820615,-2.31037 0.263241,0 0.700699,0.24539 0.972128,0.54532 0.553246,0.61133 0.537733,0.63079 -1.260848,1.58158 -1.141593,0.60349 -1.531895,0.65023 -1.531895,0.18347 z m 7.9375,-0.42898 c 0,-0.27492 0.224479,-0.77707 0.498841,-1.11589 0.42766,-0.52814 0.5598,-0.56545 0.926042,-0.2615 0.637701,0.52924 0.519476,1.02219 -0.353411,1.47358 -0.99554,0.51481 -1.071472,0.508 -1.071472,-0.0962 z m -3.175,-1.77922 c 0,-0.51445 1.225357,-2.21884 1.595213,-2.21884 0.419156,0 1.315204,0.77664 1.315204,1.13994 0,0.0947 -0.471507,0.41277 -1.047793,0.70677 -1.030011,0.52547 -1.862624,0.69182 -1.862624,0.37213 z"
         id="path3782"
         inkscape:connector-curvature="0" />
      <path
         style="fill:#06394e;stroke-width:0.26458332"
         d="m 80.28215,137.73078 v -4.90373 l 0.992187,1.11247 c 1.424415,1.59709 4.148426,4.48993 6.217708,6.60306 0.982266,1.00308 1.785938,1.88412 1.785938,1.95786 0,0.0737 -2.024063,0.13407 -4.497917,0.13407 H 80.28215 Z m 15.548444,4.10223 c 0.475239,-0.4323 1.139094,-0.786 1.475234,-0.786 0.554427,0 1.761738,0.96361 1.761738,1.40612 0,0.0998 -0.922735,0.17789 -2.050521,0.17363 l -2.050521,-0.008 0.86407,-0.786 z m 10.232856,0.39622 c 0.55796,-0.42203 0.93419,-0.47624 1.58143,-0.22787 0.8228,0.31574 0.3971,0.63301 -0.83825,0.62474 -1.16257,-0.008 -1.21828,-0.0375 -0.74318,-0.39687 z m 14.40654,-0.42894 -0.59402,-0.83423 0.77444,-0.61967 c 0.97466,-0.77986 1.45815,-0.78206 2.18354,-0.01 0.69477,0.73956 0.70176,0.93471 0.061,1.70274 -0.72185,0.86528 -1.70792,0.76814 -2.42501,-0.23891 z m 8.97294,0.16493 c -0.27623,-0.60627 -0.20829,-0.76829 0.72142,-1.7204 1.14144,-1.16894 1.50146,-1.17861 2.96832,-0.0797 1.04216,0.78076 1.07779,1.20123 0.16275,1.92099 -0.5093,0.40063 -1.08113,0.54837 -2.12234,0.54837 -1.2679,0 -1.45885,-0.0739 -1.73015,-0.66929 z m 11.10813,-0.14039 -0.86995,-0.73272 0.90989,-0.94663 c 1.22876,-1.27836 1.64959,-1.35979 2.91127,-0.56333 1.35479,0.85525 1.46772,1.76659 0.27988,2.25861 -0.43657,0.18083 -0.79403,0.40364 -0.79436,0.49512 -2.6e-4,0.0915 -0.35299,0.17879 -0.78369,0.19401 -0.4993,0.0176 -1.09835,-0.23787 -1.65304,-0.70506 z m 6.00921,0.5451 c 0.0899,-0.14552 0.32806,-0.26458 0.52917,-0.26458 0.2011,0 0.43923,0.11906 0.52917,0.26458 0.0931,0.15065 -0.13475,0.26458 -0.52917,0.26458 -0.39442,0 -0.62228,-0.11393 -0.52917,-0.26458 z m -35.26047,-0.7276 c -0.86758,-1.25299 -0.88111,-1.34427 -0.28196,-1.90246 0.74036,-0.68976 1.65706,-0.69594 2.33723,-0.0158 0.67471,0.67471 0.67142,1.33503 -0.0103,2.06678 -0.72713,0.78048 -1.43742,0.72888 -2.04496,-0.14855 z m -9.24263,-0.1323 c -1.11589,-1.22513 -1.18263,-1.64371 -0.38408,-2.40877 0.88731,-0.8501 1.16105,-0.8654 2.16769,-0.12115 0.98431,0.72773 0.99738,1.49797 0.041,2.41428 -0.90264,0.86478 -1.12916,0.87914 -1.82456,0.11564 z m -9.194582,-0.35579 c -0.641256,-0.64126 -1.216562,-1.88161 -1.060894,-2.28728 0.170244,-0.44365 1.50964,-1.25953 2.067709,-1.25953 0.378825,0 1.75858,1.5349 1.75858,1.95632 0,0.30343 -1.747997,2.01243 -2.05835,2.01243 -0.156807,0 -0.474976,-0.18987 -0.707045,-0.42194 z m 54.444462,-1.08931 c -0.19908,-0.0687 -0.25787,-0.43837 -0.16285,-1.02393 0.18046,-1.11204 -0.24334,-1.65273 -2.15388,-2.74791 -1.58421,-0.90811 -3.38804,-2.65441 -2.74187,-2.65441 0.2322,0 1.05923,0.42929 1.83784,0.95397 0.77861,0.52469 1.9812,1.24107 2.67242,1.59196 1.23834,0.62863 1.2565,0.65635 1.23817,1.8903 -0.0218,1.46734 -0.25501,2.14015 -0.68983,1.99002 z m -21.6501,-1.40155 c -0.45009,-0.87039 -0.24022,-1.61424 0.58587,-2.07655 0.68317,-0.38232 2.16874,0.31505 2.18944,1.02778 0.01,0.33596 -1.59218,1.8449 -1.95861,1.8449 -0.22275,0 -0.59026,-0.35826 -0.8167,-0.79613 z m -9.17146,-0.38666 c -0.22772,-0.49978 -0.21875,-0.74887 0.0381,-1.05833 0.80613,-0.97132 2.16381,-0.0944 1.63858,1.05833 -0.17525,0.38463 -0.52026,0.65363 -0.83833,0.65363 -0.31806,0 -0.66307,-0.269 -0.83832,-0.65363 z m -9.22119,-0.4147 c -0.44437,-0.83031 -0.0825,-1.57751 0.76401,-1.57751 1.28913,0 1.88104,1.28897 0.84623,1.84278 -0.77658,0.41561 -1.29121,0.33084 -1.61024,-0.26527 z m -8.980177,-0.30448 c -0.688321,-0.73882 -0.679865,-1.12162 0.03958,-1.79188 0.727556,-0.67783 0.732834,-0.67739 1.608851,0.1349 0.591046,0.54805 0.676146,0.76997 0.454256,1.18456 -0.24345,0.4549 -1.051307,1.05148 -1.423838,1.05148 -0.07666,0 -0.382142,-0.26058 -0.678852,-0.57906 z m -9.097425,-0.43396 c -0.624979,-0.6906 -0.552753,-1.78693 0.150156,-2.27927 0.774122,-0.54222 1.348515,-0.52028 1.884497,0.072 0.620275,0.68539 0.546586,1.16508 -0.3042,1.98018 -0.876072,0.83933 -1.144514,0.87456 -1.730453,0.22711 z m 32.635032,-2.00138 c 0,-0.44861 0.71555,-0.76578 0.93318,-0.41363 0.086,0.13916 0.0828,0.37209 -0.007,0.51761 -0.24449,0.39559 -0.92604,0.31906 -0.92604,-0.10398 z m -8.95739,-0.24658 c -0.24026,-0.28949 -0.22068,-0.44673 0.0875,-0.70247 0.3239,-0.26881 0.42841,-0.24764 0.56756,0.11497 0.23736,0.61856 -0.25944,1.06415 -0.65502,0.5875 z m -9.12003,-0.54961 c -0.18066,-0.47079 0.0359,-0.68733 0.68733,-0.68733 0.35943,0 0.46521,0.1255 0.35277,0.41852 -0.0883,0.23018 -0.16059,0.4683 -0.16059,0.52916 0,0.28917 -0.75432,0.0659 -0.87951,-0.26035 z m -8.857161,-0.21108 c -0.699221,-0.69922 -0.06222,-1.94377 0.898202,-1.75487 0.811909,0.1597 1.0693,0.91866 0.518106,1.52772 -0.561434,0.62037 -0.959277,0.68418 -1.416308,0.22715 z m -8.901455,-0.53512 c -0.542215,-0.77412 -0.520277,-1.34851 0.07198,-1.8845 0.634773,-0.57446 1.444127,-0.55575 1.98868,0.046 0.62139,0.68662 0.544144,1.24623 -0.259258,1.87819 -0.890149,0.70019 -1.289338,0.6914 -1.801399,-0.0397 z m 60.442286,-0.76721 -1.45521,-1.31562 1.4015,0.68473 c 1.33938,0.65439 1.79865,1.14034 1.60002,1.69301 -0.0501,0.13943 -0.74595,-0.33853 -1.54631,-1.06212 z m -54.95145,-2.25259 c -0.220213,-0.57386 0.238176,-1.26734 0.903653,-1.36709 0.730008,-0.10942 0.995575,0.68965 0.435047,1.30903 -0.548924,0.60655 -1.118741,0.63126 -1.3387,0.0581 z m -8.49563,-0.14925 c -0.491691,-0.49169 -0.378306,-1.12063 0.320354,-1.77699 0.807231,-0.75835 1.524888,-0.62796 1.864889,0.33882 0.227533,0.64699 0.177723,0.82317 -0.354573,1.2542 -0.710356,0.57521 -1.372854,0.64179 -1.83067,0.18397 z m 5.535599,-2.95091 c -0.400982,-0.48315 0.263778,-1.37557 0.855515,-1.1485 0.586884,0.22521 0.550619,0.89691 -0.06625,1.22705 -0.362946,0.19424 -0.580871,0.17255 -0.789266,-0.0785 z m -8.234349,-0.77971 c 0,-1.39568 1.093217,-2.02563 1.876796,-1.08147 0.305823,0.36849 0.237538,0.53079 -0.500944,1.19062 -1.101969,0.98461 -1.375852,0.96288 -1.375852,-0.10915 z m 5.333785,-2.44793 c 0.108587,-0.55236 0.91033,-1.10636 1.192604,-0.82408 0.282273,0.28227 -0.271731,1.08401 -0.824088,1.1926 -0.316767,0.0623 -0.430789,-0.0517 -0.368516,-0.36852 z m -2.773851,-2.67387 c -0.238459,-0.23846 0.331014,-0.88424 0.779754,-0.88424 0.502313,0 0.460153,0.70042 -0.05404,0.89773 -0.517686,0.19866 -0.513491,0.19874 -0.725718,-0.0135 z m -2.513177,-2.91596 c 0.06186,-0.53986 0.250273,-0.7698 0.680847,-0.83095 0.823102,-0.1169 0.771172,0.56992 -0.08553,1.13125 -0.678966,0.44488 -0.680611,0.44405 -0.595313,-0.3003 z m 64.445423,-6.99519 c -2.76239,-1.85118 -3.10885,-2.16796 -3.10885,-2.84254 0,-0.41755 0.23813,-1.06192 0.52917,-1.43191 0.29104,-0.37 0.52916,-0.92346 0.52916,-1.2299 0,-0.30644 0.10155,-0.76391 0.22566,-1.0166 0.86105,-1.7531 1.07784,-2.58912 1.22823,-4.73648 0.13479,-1.924644 0.0776,-2.688886 -0.27722,-3.704165 -0.24588,-0.703562 -0.48808,-1.517329 -0.53822,-1.80837 -0.30301,-1.758851 -0.7447,-2.992316 -1.27904,-3.571875 -0.33542,-0.363802 -0.92699,-1.345402 -1.3146,-2.181333 -0.38761,-0.835931 -0.99923,-1.712828 -1.35915,-1.948659 -0.35992,-0.235831 -0.65441,-0.57542 -0.65441,-0.754642 0,-0.179222 -0.41671,-0.75494 -0.92604,-1.279372 -0.50932,-0.524434 -0.92819,-1.108245 -0.93081,-1.297359 -0.007,-0.539208 -1.92806,-1.998896 -3.38634,-2.573694 -0.7283,-0.28707 -1.77953,-0.765995 -2.33606,-1.064277 -0.55652,-0.298281 -1.32648,-0.54233 -1.71099,-0.54233 -0.38452,0 -0.84735,-0.178594 -1.02851,-0.396875 -0.18115,-0.218281 -0.59416,-0.396875 -0.91778,-0.396875 -0.32363,0 -0.93413,-0.171283 -1.35667,-0.380629 -0.90205,-0.446918 -6.27633,-0.434839 -6.72628,0.01512 -0.17259,0.172587 -0.80728,0.202628 -1.70557,0.08073 -1.02092,-0.138541 -1.7576,-0.08039 -2.57209,0.203026 -0.86089,0.299566 -1.70742,0.353764 -3.44457,0.220536 l -2.30318,-0.176639 -1.59943,1.63457 c -0.87968,0.899013 -1.59942,1.804237 -1.59942,2.011608 0,0.207371 -0.1786,0.445571 -0.39688,0.529334 -0.21828,0.08376 -0.39687,0.316929 -0.39687,0.518148 0,0.605987 -3.48661,4.604615 -4.015,4.604615 -0.26561,0 -0.48292,0.178594 -0.48292,0.396875 0,0.560446 -0.71565,0.489474 -2.248959,-0.223035 -3.375744,-1.568659 -3.513965,-1.205282 -1.076457,2.829968 0.338685,0.560688 0.560241,1.23186 0.492345,1.491493 -0.0679,0.259634 0.006,0.552056 0.164187,0.649828 0.360941,0.223074 0.374584,1.606357 0.02233,2.264541 -0.177343,0.331368 -0.177343,0.550075 0,0.659679 0.437766,0.270554 0.302604,1.968516 -0.197722,2.483885 -0.685429,0.706037 -3.537812,2.569993 -4.299478,2.809593 -0.895962,0.28185 -7.784852,3.25173 -10.665141,4.59786 -1.281922,0.59912 -2.442782,1.08931 -2.579688,1.08931 -0.152784,0 -0.24892,-6.2333 -0.24892,-16.13958 V 74.901184 h 33.866673 33.86666 v 19.446874 c 0,10.695782 -0.0298,19.432392 -0.0661,19.414682 -0.0364,-0.0177 -1.46513,-0.96971 -3.175,-2.11555 z m -61.846347,-3.15954 c 0,-0.15411 0.119063,-0.20661 0.264584,-0.11668 0.14552,0.0899 0.264583,0.21603 0.264583,0.2802 0,0.0642 -0.119063,0.11668 -0.264583,0.11668 -0.145521,0 -0.264584,-0.12609 -0.264584,-0.2802 z"
         id="path3780"
         inkscape:connector-curvature="0" />
    </g>
    <text
       xml:space="preserve"
       style="font-style:normal;font-weight:normal;font-size:10.58333302px;line-height:1.25;font-family:sans-serif;letter-spacing:0px;word-spacing:0px;fill:#000000;fill-opacity:1;stroke:none;stroke-width:0.26458332"
       x="15.771085"
       y="286.33621"
       id="text14"><tspan
         sodipodi:role="line"
         id="tspan12"
         x="15.771085"
         y="286.33621"
         style="font-style:normal;font-variant:normal;font-weight:bold;font-stretch:normal;font-size:12.69999981px;font-family:sans-serif;-inkscape-font-specification:'sans-serif Bold';text-align:start;text-anchor:start;stroke-width:0.26458332">audio</tspan></text>
  </g>
</svg>
